# xmcd CD database file
#
# Track frame offsets:
#	150
#	25302
#	46860
#	67870
#	89440
#	114555
#	136115
#	157132
#	189842
#
# Disc length: 4440 seconds
#
# Revision: 2
# Processed by: cddbd v1.5.1PL2 Copyright (c) Steve Scherf et al.
# Submitted via: CDex 1.51
#
DISCID=6d115609
DTITLE=V6 - Orange
DYEAR=2005
DGENRE=J-Pop
TTITLE0=Orange
TTITLE1=2nd bell
TTITLE2=INNOCENCE - 20th Century
TTITLE3=Like it！
TTITLE4=Orange(カラオケ)
TTITLE5=2nd bell(カラオケ)
TTITLE6=INNOCENCE(カラオケ)
TTITLE7=Like it！(カラオケ)
TTITLE8=CCCD
EXTD=YEAR: 2005
EXTT0=
EXTT1=
EXTT2=
EXTT3=
EXTT4=
EXTT5=
EXTT6=
EXTT7=
EXTT8=
PLAYORDER=
